<svg xmlns="http://www.w3.org/2000/svg" width="48.514" height="47.649" viewBox="0 0 48.514 47.649"><defs><style>.a{fill:#0065d9;stroke:#0065d9;stroke-width:0.5px;}</style></defs><g transform="translate(0.251 0.289)"><path class="a" d="M301.6,145.791a2.613,2.613,0,0,0-1.337-.013l-1.459-2.551-1.222.7,1.459,2.551a2.63,2.63,0,0,0-.412,3.154l.732,1.28a2.612,2.612,0,0,0,1.591,1.231,2.65,2.65,0,0,0,.694.093,2.605,2.605,0,0,0,.643-.081l.287.5a2.633,2.633,0,0,0-.412,3.153l.732,1.28a2.626,2.626,0,0,0,2.928,1.243l1.47,2.57,1.223-.7-1.471-2.57a2.632,2.632,0,0,0,.412-3.153l-.732-1.28a2.633,2.633,0,0,0-2.927-1.243l-.287-.5a2.631,2.631,0,0,0,.412-3.154l-.732-1.28A2.609,2.609,0,0,0,301.6,145.791Zm3.9,8.108.733,1.28a1.219,1.219,0,0,1,.047,1.119l-.41-.715-1.222.7.41.716a1.228,1.228,0,0,1-.2-.037,1.211,1.211,0,0,1-.738-.571l-.732-1.28a1.219,1.219,0,0,1-.047-1.12l.42.734,1.223-.7-.42-.734A1.22,1.22,0,0,1,305.508,153.9Zm-3.165-4.494-1.222.7.41.716a1.224,1.224,0,0,1-.2-.037,1.211,1.211,0,0,1-.738-.571l-.732-1.28a1.211,1.211,0,0,1-.118-.926,1.256,1.256,0,0,1,.071-.195l.421.735,1.222-.7-.42-.734a1.218,1.218,0,0,1,.941.608l.732,1.28a1.21,1.21,0,0,1,.118.926,1.251,1.251,0,0,1-.071.195Zm0,0" transform="translate(-269.68 -129.796)"/><path class="a" d="M99.433,160.9l1.471-2.57a2.633,2.633,0,0,0,2.927-1.243l.733-1.28a2.631,2.631,0,0,0-.412-3.154l.287-.5a2.633,2.633,0,0,0,2.927-1.243l.732-1.28a2.632,2.632,0,0,0-.412-3.153l1.46-2.552-1.222-.7-1.46,2.552a2.633,2.633,0,0,0-2.927,1.242l-.732,1.28a2.632,2.632,0,0,0,.412,3.153l-.287.5A2.631,2.631,0,0,0,100,153.2l-.732,1.28a2.633,2.633,0,0,0,.412,3.153l-1.47,2.57Zm4.475-10.976a1.212,1.212,0,0,1,.118-.926l.732-1.28a1.219,1.219,0,0,1,.942-.608l-.42.734,1.222.7.42-.734a1.218,1.218,0,0,1-.047,1.12l-.732,1.28a1.219,1.219,0,0,1-.942.608l.409-.715-1.222-.7-.41.716A1.219,1.219,0,0,1,103.908,149.926Zm-3.416,5.252.732-1.28a1.211,1.211,0,0,1,.738-.571,1.23,1.23,0,0,1,.2-.037l-.42.734,1.222.7.42-.734a1.219,1.219,0,0,1-.047,1.12l-.733,1.28a1.219,1.219,0,0,1-.941.608l.409-.715-1.222-.7-.409.715A1.218,1.218,0,0,1,100.492,155.178Zm0,0" transform="translate(-89.001 -129.795)"/><path class="a" d="M170.947,378.6l2.939-.008,0-1.408-2.94.008a2.633,2.633,0,0,0-2.53-1.917H168.4l-1.475,0a2.632,2.632,0,0,0-2.526,1.931l-.578,0a2.632,2.632,0,0,0-2.531-1.917h-.008l-1.475,0a2.632,2.632,0,0,0-2.527,1.931l-2.961.008,0,1.408,2.961-.008a2.633,2.633,0,0,0,2.53,1.917h.007l1.475,0a2.631,2.631,0,0,0,2.528-1.931l.577,0a2.63,2.63,0,0,0,2.531,1.917h.008l1.475,0a2.632,2.632,0,0,0,2.528-1.931Zm-8.788.183a1.212,1.212,0,0,1-.861.36l-1.475,0h0a1.218,1.218,0,0,1-.993-.512l.824,0,0-1.409-.825,0a1.224,1.224,0,0,1,.995-.518l1.475,0h0a1.211,1.211,0,0,1,.86.355,1.193,1.193,0,0,1,.134.158l-.847,0,0,1.409.847,0A1.241,1.241,0,0,1,162.159,378.778Zm6.256.339-1.475,0h0a1.212,1.212,0,0,1-.86-.355,1.236,1.236,0,0,1-.134-.158l.825,0,0-1.408-.824,0a1.22,1.22,0,0,1,.994-.518l1.475,0h0a1.219,1.219,0,0,1,.993.513l-.845,0,0,1.408.846,0a1.236,1.236,0,0,1-.133.159A1.211,1.211,0,0,1,168.416,379.117Zm0,0" transform="translate(-139.852 -340.078)"/><path class="a" d="M184.827,81.966v-7.8l6.755-3.9-.7-1.219-6.754,3.9-6.754-3.9-.7,1.219,6.755,3.9v7.8Zm0,0" transform="translate(-160.097 -62.572)"/><path class="a" d="M343.311,332.359l-6.752,3.9-6.757-3.9-.7,1.22,6.757,3.9,0,7.8h1.408l0-7.8,6.752-3.9Zm0,0" transform="translate(-298.236 -301.191)"/><path class="a" d="M31.941,344.782v-7.8l6.754-3.9-.7-1.219-6.754,3.9-6.755-3.9-.7,1.22,6.755,3.9v7.8Zm0,0" transform="translate(-21.548 -300.742)"/><path class="a" d="M154.294,6.407l8.28-4.781,8.28,4.781V15.17h1.409V5.594L162.575,0l-9.688,5.594V15.17h1.408Zm0,0" transform="translate(-138.549)"/><path class="a" d="M218.6,205.1l3.89-2.246-.7-1.219-3.186,1.839-3.186-1.84-.7,1.219Zm0,0" transform="translate(-194.58 -182.728)"/><path class="a" d="M9.688,290.776,1.408,286v-9.561L9.1,271.993l-.7-1.22L0,275.621v11.187L9.688,292.4l8.942-5.163-.7-1.22Zm0,0" transform="translate(0 -245.381)"/><path class="a" d="M163.3,305.406v-4.028l-3.78-2.182-.7,1.22,3.076,1.776v3.215Zm0,0" transform="translate(-143.92 -271.138)"/><path class="a" d="M333.362,276.388l-8.355-4.818-.7,1.22,7.651,4.412,0,9.561-8.278,4.785-8.095-4.668-.7,1.22,8.8,5.075,9.686-5.6Zm0,0" transform="translate(-285.354 -246.103)"/><path class="a" d="M309.152,299.383l-3.84,2.22,0,3.8h1.408l0-2.991,3.136-1.813Zm0,0" transform="translate(-276.682 -271.307)"/><path class="a" d="M202.249,33.087l-.706-1.219,1.218-.706.706,1.218Zm8.358-.289-3.937-2.273-.359.208-.706-1.219,1.063-.616,4.643,2.68Zm-6.327-.888-.706-1.219,1.218-.706L205.5,31.2Zm0,0" transform="translate(-182.643 -26.188)"/><path class="a" d="M430.666,373.243l-.7-1.219,3.936-2.275v-.415l1.408,0,0,1.229Zm3.228-4.848,0-1.408,1.408,0,0,1.409Zm-.005-2.347,0-1.408,1.408,0,0,1.408Zm0,0" transform="translate(-389.641 -330.442)"/><path class="a" d="M30.166,370.672l-5.135-2.953v-1.473h1.408v.659l4.429,2.547Zm-5.135-5.365V363.9h1.408v1.408Zm1.408-2.347H25.031v-1.408h1.408Zm0,0" transform="translate(-22.684 -327.646)"/></g></svg>