<svg xmlns="http://www.w3.org/2000/svg" width="47.506" height="47.504" viewBox="0 0 47.506 47.504"><defs><style>.a{fill:#0065d9;}</style></defs><g transform="translate(0 -0.01)"><path class="a" d="M43.315,19.57a4.2,4.2,0,0,0-3.951,2.794H26.407a6.948,6.948,0,0,0-1.02-2.453l11.93-11.93a4.2,4.2,0,0,0,4.77-.818h0a4.192,4.192,0,1,0-6.746-1.158l-11.93,11.93a6.946,6.946,0,0,0-2.453-1.02V13.741a4.192,4.192,0,1,0-2.794,0v3.175a6.945,6.945,0,0,0-2.453,1.02L7.974,10.2A4.186,4.186,0,1,0,6,12.174l7.738,7.738a6.948,6.948,0,0,0-1.02,2.453H8.143a4.192,4.192,0,1,0,0,2.794h4.573a6.948,6.948,0,0,0,1.02,2.453L6,35.349a4.192,4.192,0,1,0,1.976,1.976l7.738-7.738a6.944,6.944,0,0,0,2.453,1.02v8.764a4.192,4.192,0,1,0,2.794,0V30.607a6.944,6.944,0,0,0,2.453-1.02l4.943,4.943a4.192,4.192,0,1,0,1.976-1.976l-4.943-4.943a6.947,6.947,0,0,0,1.02-2.453H39.363a4.192,4.192,0,1,0,3.951-5.589ZM38.135,3.212a1.4,1.4,0,1,1,0,1.976A1.388,1.388,0,0,1,38.135,3.212ZM19.562,8.392a1.4,1.4,0,1,1-1.4,1.4A1.4,1.4,0,0,1,19.562,8.392ZM3.2,9.38a1.4,1.4,0,1,1,.988.409A1.4,1.4,0,0,1,3.2,9.38Zm.988,15.779a1.4,1.4,0,1,1,1.4-1.4A1.4,1.4,0,0,1,4.192,25.159ZM5.18,40.119a1.4,1.4,0,1,1,0-1.976,1.388,1.388,0,0,1,0,1.976Zm14.382,4.6a1.4,1.4,0,1,1,1.4-1.4A1.4,1.4,0,0,1,19.562,44.72Zm0-16.767a4.192,4.192,0,1,1,4.192-4.192A4.2,4.2,0,0,1,19.562,27.953Zm13.563,7.4a1.4,1.4,0,1,1-1.976,1.976h0a1.4,1.4,0,1,1,1.976-1.976Zm10.19-10.19a1.4,1.4,0,1,1,1.4-1.4A1.4,1.4,0,0,1,43.315,25.159Z" transform="translate(0)"/></g></svg>