<svg xmlns="http://www.w3.org/2000/svg" width="50.504" height="50.501" viewBox="0 0 50.504 50.501"><defs><style>.a{fill:#0065d9;}</style></defs><g transform="translate(0 -0.018)"><path class="a" d="M34.376,18.262a16.133,16.133,0,0,0-2.28.163A16.128,16.128,0,1,0,18.41,32.113,16.128,16.128,0,1,0,34.376,18.262ZM2.959,16.147a13.17,13.17,0,1,1,13.17,13.17A13.184,13.184,0,0,1,2.959,16.147ZM34.376,47.56a13.171,13.171,0,0,1-12.81-16.229,16.21,16.21,0,0,0,9.748-9.75A13.17,13.17,0,1,1,34.376,47.56Z"/><path class="a" d="M170.77,163.537a7.26,7.26,0,0,1-7.251,7.251v2.959a10.222,10.222,0,0,0,10.211-10.211Z" transform="translate(-147.389 -147.39)"/><path class="a" d="M355.77,348.5a7.26,7.26,0,0,1-7.251,7.251v2.959A10.222,10.222,0,0,0,358.729,348.5Z" transform="translate(-314.142 -314.11)"/></g></svg>